<?xml version="1.0" encoding="utf-8"?><svg viewBox="0 0 682 682" xmlns="http://www.w3.org/2000/svg" xmlns:xlink="http://www.w3.org/1999/xlink"><style>:root>svg{display:none}:root>svg:target{display:block}</style><svg viewBox="0 0 306.39 228.16" id="call24" xmlns="http://www.w3.org/2000/svg"><path d="M281 0H25.39A25.38 25.38 0 000 25.39V144.5a25.39 25.39 0 0025.39 25.39h14.86v58.27l58.27-58.27H281a25.39 25.39 0 0025.39-25.39V25.39A25.38 25.38 0 00281 0z" fill="#229fff"/><path d="M69.69 92.3c9.25-6.3 20.77-14.22 20.77-27.7A19.53 19.53 0 0083 48.83a26.54 26.54 0 00-16.38-5.45c-11.22 0-23.15 6.9-23.15 19.69 0 5.64 2.37 8.38 7.26 8.38 5.51 0 8.48-3.06 8.48-5.94 0-4.77 2.74-7.51 7.51-7.51 5.63 0 7.62 3.83 7.62 7.1 0 6.07-7.15 11.31-14.72 16.87-8.54 6.27-17.38 12.75-17.38 21.24v9.88c0 3.07 4.18 5 7.06 5h36.24c2.62 0 4.92-3.34 4.92-7.16s-2.3-7-4.92-7H59v-.79c0-3.51 5-6.91 10.69-10.84zM146 87.49h-4.25v-7c0-2.27-2.11-4.92-8.07-4.92s-8.08 2.65-8.08 4.92v7h-8.42l17.94-36a5.2 5.2 0 00.52-2c0-1.67-1.07-3.26-3-4.49a10.28 10.28 0 00-5.08-1.65 7.32 7.32 0 00-6.74 4.14L97.25 93.67a6.65 6.65 0 00-.83 3.12c0 3.37 2.18 5.63 5.43 5.63h23.71v10.67c0 2.42 2.53 5 8.08 5s8.07-2.6 8.07-5v-10.67H146c2.54 0 5-3.7 5-7.47 0-5.12-2.62-7.46-5-7.46zM198.94 39.2a4.6 4.6 0 00-4.39 2.62l-35.77 73.45a4.72 4.72 0 00-.52 2 5.77 5.77 0 005.84 5.53 5.2 5.2 0 004.7-2.62l35.86-73.46a4.55 4.55 0 00.42-2c0-3.3-3.17-5.52-6.14-5.52zM257.12 43.38H221c-3.56 0-7.06 2.48-7.06 5v15.8c0 2.76 3.58 5 8 5s8.18-2.3 8.18-5v-6.7h18v7l-25 43.37a5.3 5.3 0 00-.73 2.72c0 4.81 5.38 8.17 10.21 8.17 2.3 0 3.81-.72 4.6-2.21l23.7-45.66c.77-1.44 3.28-6.4 3.28-9.74V48.39c0-2.19-3.42-5.01-7.06-5.01z" fill="#fff"/></svg><svg viewBox="0 0 384 384" id="clock" xmlns="http://www.w3.org/2000/svg"><path d="M343.594 101.04c-7.953 3.847-11.281 13.417-7.434 21.366C346.672 144.121 352 167.527 352 192c0 88.223-71.777 160-160 160S32 280.223 32 192 103.777 32 192 32c36.559 0 70.902 11.938 99.328 34.52 6.895 5.503 16.977 4.351 22.48-2.567 5.504-6.914 4.352-16.984-2.57-22.48C277.586 14.727 235.238 0 192 0 86.137 0 0 86.137 0 192s86.137 192 192 192 192-86.137 192-192c0-29.336-6.406-57.45-19.04-83.527-3.839-7.97-13.44-11.29-21.366-7.434zm0 0"/><path d="M192 64c-8.832 0-16 7.168-16 16v112c0 8.832 7.168 16 16 16h80c8.832 0 16-7.168 16-16s-7.168-16-16-16h-64V80c0-8.832-7.168-16-16-16zm0 0"/></svg><svg viewBox="0 0 512 511" id="edit" xmlns="http://www.w3.org/2000/svg"><path d="M405.332 256.484c-11.797 0-21.332 9.559-21.332 21.332v170.668c0 11.754-9.559 21.332-21.332 21.332H64c-11.777 0-21.332-9.578-21.332-21.332V149.816c0-11.754 9.555-21.332 21.332-21.332h170.668c11.797 0 21.332-9.558 21.332-21.332 0-11.777-9.535-21.336-21.332-21.336H64c-35.285 0-64 28.715-64 64v298.668c0 35.286 28.715 64 64 64h298.668c35.285 0 64-28.714 64-64V277.816c0-11.796-9.54-21.332-21.336-21.332zm0 0"/><path d="M200.02 237.05a10.793 10.793 0 00-2.922 5.438l-15.082 75.438c-.703 3.496.406 7.101 2.922 9.64a10.673 10.673 0 007.554 3.114c.68 0 1.387-.063 2.09-.211l75.414-15.082c2.09-.43 3.988-1.43 5.461-2.926l168.79-168.79-75.415-75.41zm0 0M496.383 16.102c-20.797-20.801-54.633-20.801-75.414 0l-29.524 29.523 75.414 75.414 29.524-29.527C506.453 81.465 512 68.066 512 53.816s-5.547-27.648-15.617-37.714zm0 0"/></svg><svg viewBox="0 0 512 512" id="facebook" xmlns="http://www.w3.org/2000/svg"><path d="M448 0H64C28.704 0 0 28.704 0 64v384c0 35.296 28.704 64 64 64h192V336h-64v-80h64v-64c0-53.024 42.976-96 96-96h64v80h-32c-17.664 0-32-1.664-32 16v64h80l-32 80h-48v176h96c35.296 0 64-28.704 64-64V64c0-35.296-28.704-64-64-64z"/></svg><svg viewBox="0 0 511 511.9" id="instagram" xmlns="http://www.w3.org/2000/svg"><path d="M510.95 150.5c-1.2-27.2-5.598-45.898-11.9-62.102-6.5-17.199-16.5-32.597-29.6-45.398-12.802-13-28.302-23.102-45.302-29.5-16.296-6.3-34.898-10.7-62.097-11.898C334.648.3 325.949 0 256.449 0s-78.199.3-105.5 1.5c-27.199 1.2-45.898 5.602-62.097 11.898-17.204 6.5-32.602 16.5-45.403 29.602-13 12.8-23.097 28.3-29.5 45.3-6.3 16.302-10.699 34.9-11.898 62.098C.75 177.801.449 186.5.449 256s.301 78.2 1.5 105.5c1.2 27.2 5.602 45.898 11.903 62.102 6.5 17.199 16.597 32.597 29.597 45.398 12.801 13 28.301 23.102 45.301 29.5 16.3 6.3 34.898 10.7 62.102 11.898 27.296 1.204 36 1.5 105.5 1.5s78.199-.296 105.5-1.5c27.199-1.199 45.898-5.597 62.097-11.898a130.934 130.934 0 0074.903-74.898c6.296-16.301 10.699-34.903 11.898-62.102 1.2-27.3 1.5-36 1.5-105.5s-.102-78.2-1.3-105.5zm-46.098 209c-1.102 25-5.301 38.5-8.801 47.5-8.602 22.3-26.301 40-48.602 48.602-9 3.5-22.597 7.699-47.5 8.796-27 1.204-35.097 1.5-103.398 1.5s-76.5-.296-103.403-1.5c-25-1.097-38.5-5.296-47.5-8.796C94.551 451.5 84.45 445 76.25 436.5c-8.5-8.3-15-18.3-19.102-29.398-3.5-9-7.699-22.602-8.796-47.5-1.204-27-1.5-35.102-1.5-103.403s.296-76.5 1.5-103.398c1.097-25 5.296-38.5 8.796-47.5C61.25 94.199 67.75 84.1 76.352 75.898c8.296-8.5 18.296-15 29.398-19.097 9-3.5 22.602-7.7 47.5-8.801 27-1.2 35.102-1.5 103.398-1.5 68.403 0 76.5.3 103.403 1.5 25 1.102 38.5 5.3 47.5 8.8 11.097 4.098 21.199 10.598 29.398 19.098 8.5 8.301 15 18.301 19.102 29.403 3.5 9 7.699 22.597 8.8 47.5 1.2 27 1.5 35.097 1.5 103.398s-.3 76.301-1.5 103.301zm0 0"/><path d="M256.45 124.5c-72.598 0-131.5 58.898-131.5 131.5s58.902 131.5 131.5 131.5c72.6 0 131.5-58.898 131.5-131.5s-58.9-131.5-131.5-131.5zm0 216.8c-47.098 0-85.302-38.198-85.302-85.3s38.204-85.3 85.301-85.3c47.102 0 85.301 38.198 85.301 85.3s-38.2 85.3-85.3 85.3zm0 0M423.852 119.3c0 16.954-13.747 30.7-30.704 30.7-16.953 0-30.699-13.746-30.699-30.7 0-16.956 13.746-30.698 30.7-30.698 16.956 0 30.703 13.742 30.703 30.699zm0 0"/></svg><svg viewBox="0 0 72 70" id="kyivstar" xmlns="http://www.w3.org/2000/svg"><g stroke-width="8" stroke-linecap="round"><path d="M36 9v14.5M62.6 28.3l-13.8 4.5M52.5 59.7L44 48M19.5 59.7L28 48M9.4 28.3l13.8 4.5"/></g></svg><svg viewBox="0 0 72 70" id="lifecell" xmlns="http://www.w3.org/2000/svg"><path d="M5.3 35C5.3 18 19 4.3 36 4.3S66.7 18 66.7 35 53 65.7 36 65.7c-3.4 0-6.6-.5-9.6-1.5 2.2-12.7 10.2-23 20.7-27.4 1.2 1.4 3.1 2.3 5.2 2.3 3.7 0 6.8-3 6.8-6.8s-3-6.8-6.8-6.8c-3.7 0-6.8 3-6.8 6.8-13.5 4.1-24.4 13.5-30 25.6-1.8-1.6-3.3-3.4-4.7-5.3.3-11.8 6.2-22.1 14.9-28.2 1.2 1.4 3.1 2.3 5.1 2.3 3.8 0 6.8-3 6.8-6.8s-3-6.8-6.8-6.8-6.8 3-6.8 6.8v.6C15.9 23.4 9.2 29 5.3 36.2V35"/></svg><svg viewBox="0 0 384.97 384.97" id="menu" xmlns="http://www.w3.org/2000/svg"><path d="M12.03 120.303h360.909c6.641 0 12.03-5.39 12.03-12.03 0-6.641-5.39-12.03-12.03-12.03H12.03c-6.641 0-12.03 5.39-12.03 12.03s5.39 12.03 12.03 12.03zM372.939 180.455H12.03c-6.641 0-12.03 5.39-12.03 12.03s5.39 12.03 12.03 12.03h360.909c6.641 0 12.03-5.39 12.03-12.03s-5.389-12.03-12.03-12.03zM372.939 264.667H132.333c-6.641 0-12.03 5.39-12.03 12.03 0 6.641 5.39 12.03 12.03 12.03h240.606c6.641 0 12.03-5.39 12.03-12.03.001-6.641-5.389-12.03-12.03-12.03z"/></svg><svg viewBox="-119 -21 682 682.667" id="placeholder" xmlns="http://www.w3.org/2000/svg"><path d="M216.21 0C93.548 0-6.25 99.797-6.25 222.46-6.25 376.638 216.43 640 216.43 640s222.242-270.945 222.242-417.54C438.672 99.798 338.879 0 216.21 0zm67.122 287.598c-18.508 18.504-42.812 27.757-67.121 27.757-24.305 0-48.617-9.253-67.117-27.757-37.012-37.008-37.012-97.227 0-134.239 17.922-17.93 41.761-27.804 67.117-27.804 25.355 0 49.191 9.879 67.121 27.804 37.012 37.012 37.012 97.23 0 134.239zm0 0"/></svg><svg viewBox="0 0 512 512" id="question" xmlns="http://www.w3.org/2000/svg"><path d="M256 8C119.043 8 8 119.083 8 256c0 136.997 111.043 248 248 248s248-111.003 248-248C504 119.083 392.957 8 256 8zm0 448c-110.532 0-200-89.431-200-200 0-110.495 89.472-200 200-200 110.491 0 200 89.471 200 200 0 110.53-89.431 200-200 200zm107.244-255.2c0 67.052-72.421 68.084-72.421 92.863V300c0 6.627-5.373 12-12 12h-45.647c-6.627 0-12-5.373-12-12v-8.659c0-35.745 27.1-50.034 47.579-61.516 17.561-9.845 28.324-16.541 28.324-29.579 0-17.246-21.999-28.693-39.784-28.693-23.189 0-33.894 10.977-48.942 29.969-4.057 5.12-11.46 6.071-16.666 2.124l-27.824-21.098c-5.107-3.872-6.251-11.066-2.644-16.363C184.846 131.491 214.94 112 261.794 112c49.071 0 101.45 38.304 101.45 88.8zM298 368c0 23.159-18.841 42-42 42s-42-18.841-42-42 18.841-42 42-42 42 18.841 42 42z"/></svg><svg viewBox="-5 0 493 493.594" id="success" xmlns="http://www.w3.org/2000/svg"><path d="M.297 460.793l6.398 14.402 229.602-95.203 40 4.801 14.398 44-19.199 18.402c-7.2 6.399-9.598 16.797-5.598 26.399l8 20 132.797-52-7.199-19.2c-3.2-9.601-12-15.199-22.398-15.199h-26.403l-14.398-34.402 35.2-17.598c11.198-5.601 16-18.402 12-29.601l-45.599-122.399c-4.8-12.8-18.402-18.402-31.203-14.402 0 0-.797 0-.797.8l-33.601 14.4-4.8-12 18.401-21.598c12.797-14.403 20.797-32 23.2-51.2l23.199-28c15.2-17.601 12-44-5.602-59.203-3.199-2.398-6.398-4.797-9.597-6.398-8.801-4-17.602-4.801-27.2-2.399l-2.402-7.203c-4-12.797-18.398-19.199-30.398-14.398l-168.801 60.8c-12.8 4.801-19.2 18.399-14.399 30.399v.8l4 10.4c-20.8 9.6-30.402 33.6-23.203 54.402 5.602 16 20 27.199 36.801 29.597l37.602 4c15.199 11.203 33.597 18.403 52 20l26.398 2.403 4.8 12c-5.6 3.199-9.6 8.8-11.198 16l-5.602 27.199-195.2 79.199 5.602 15.2 112-44.798 27.2 81.598zm383.2-33.598l1.6 4.797-102.402 40.801-2.398-4.8c-.8-3.2 0-6.4 1.601-8.798l27.2-25.601 34.398-11.2h32c4 0 6.402 1.598 8 4.801zm-50.4-19.203l-28.8 9.602-10.399-30.399c4.797.797 8.797 0 12.797-2.402l13.602-6.398zm-21.6-206.398c4-1.602 8.8 0 10.401 4l6.399 16.8-39.2 12.801 4.801 15.2 39.2-12.801 9.597 25.601-37.597 12.797 4.8 15.203 38.399-12.8 9.601 25.597-36.8 12 4.8 15.203 37.598-12.8 4 10.398c1.602 4 0 8-4 9.602l-63.2 31.199c-1.6.8-3.198.8-4.8.8l-54.398-6.402-29.602-88.797 5.602-29.601c.8-2.399 2.398-4.801 4.8-5.602zm-.802-161.602c12.801 5.602 19.203 20.801 13.602 34.403-.8 2.398-2.399 4-4 6.398l-9.602 12c-.797-8-2.398-15.2-4.797-23.2l-10.402-31.198c5.602-.801 10.402 0 15.2 1.597zm-240 114.403c-4.797-13.602.801-28 13.602-34.403l11.2 27.203c4 9.598 9.6 19.2 16 27.2l-16.802-1.602c-11.199-.8-20.797-8-24-18.398zm113.602 42.398c-32.8-3.2-61.602-24-73.602-55.2l-20.797-52.8c-1.601-4 0-8.8 4-10.398l168.797-60.801c2.403-.801 4-.801 6.403 0 1.597.8 3.199 2.398 4 4.8l17.597 52.801c9.602 29.598 3.203 61.598-16.797 84.797l-24.8 28.801 7.199 19.2-28.8 12-8-20zm-51.2 116l18.4-7.2 20 60.802 15.198-4.801-20.797-62.399 32-12.8 27.2 80.8-64.801 27.2zm0 0M395.496 139.992v8h16v-8c0-22.398 17.602-40 40-40v-16c-22.398 0-40-17.597-40-40v-8h-16v8c0 22.403-17.598 40-40 40v16c22.402 0 40 17.602 40 40zm8-67.199c4.8 8 11.2 14.402 19.2 19.2-8 4.8-14.4 11.202-19.2 19.202-4.8-8-11.2-14.402-19.2-19.203 8-4.797 14.4-11.199 19.2-19.199zm0 0"/><path d="M43.496 299.992v8h16v-8c0-22.398 17.602-40 40-40v-16c-22.398 0-40-17.597-40-40v-8h-16v8c0 22.403-17.598 40-40 40v16c22.402 0 40 17.602 40 40zm8-67.199c4.8 8 11.2 14.402 19.2 19.2-8 4.8-14.4 11.202-19.2 19.202-4.8-8-11.2-14.402-19.2-19.203 8-4.797 14.4-11.199 19.2-19.199zm0 0M443.496 203.992v-8h-16v8c0 22.403-17.598 40-40 40v16c22.402 0 40 17.602 40 40v8h16v-8c0-22.398 17.602-40 40-40v-16c-22.398 0-40-17.597-40-40zm-8 67.203c-4.8-8-11.2-14.402-19.2-19.203 8-4.797 14.4-11.199 19.2-19.199 4.8 8 11.2 14.402 19.2 19.2-8 4.8-14.4 11.202-19.2 19.202zm0 0M237.898 142.395l11.2 11.199c44-44 3.199-111.2.8-113.602l-13.601 8.801c.8 0 36.8 58.402 1.601 93.602zm0 0"/></svg><svg viewBox="0 0 24 24" id="telegram" xmlns="http://www.w3.org/2000/svg"><path d="M9.417 15.181l-.397 5.584c.568 0 .814-.244 1.109-.537l2.663-2.545 5.518 4.041c1.012.564 1.725.267 1.998-.931L23.93 3.821l.001-.001c.321-1.496-.541-2.081-1.527-1.714l-21.29 8.151c-1.453.564-1.431 1.374-.247 1.741l5.443 1.693L18.953 5.78c.595-.394 1.136-.176.691.218z"/></svg><svg viewBox="0 0 512 512" id="telephone" xmlns="http://www.w3.org/2000/svg"><path d="M256 0C114.624 0 0 114.624 0 256s114.624 256 256 256 256-114.624 256-256S397.376 0 256 0zm128 400c-149.984 0-272-122.016-272-272 0-8.832 7.168-16 16-16h59.072c8.832 0 16 7.168 16 16 0 27.648 6.016 53.984 17.888 78.24a15.84 15.84 0 01.736 12.256 15.921 15.921 0 01-8.16 9.184l-23.872 11.52c19.872 34.592 48.544 63.296 83.104 83.104l11.52-23.84c1.856-3.84 5.152-6.752 9.184-8.16 4.032-1.376 8.448-1.12 12.256.736 24.32 11.872 50.624 17.888 78.24 17.888 8.832 0 16 7.168 16 16V384H400c0 8.832-7.168 16-16 16z"/></svg><svg viewBox="0 0 24 24" id="viber" xmlns="http://www.w3.org/2000/svg"><path d="M23.155 13.893c.716-6.027-.344-9.832-2.256-11.553l.001-.001C17.814-.6 7.392-1.035 3.7 2.471 2.042 4.186 1.458 6.703 1.394 9.819c-.064 3.117-.14 8.956 5.301 10.54H6.7l-.005 2.419s-.037.98.589 1.177c.716.232 1.04-.223 3.267-2.883 3.724.323 6.584-.417 6.909-.525.752-.252 5.007-.815 5.695-6.654zM10.918 19.37s-2.357 2.939-3.09 3.702c-.24.248-.503.225-.499-.267 0-.323.018-4.016.018-4.016-4.613-1.322-4.341-6.294-4.291-8.895.05-2.602.526-4.733 1.93-6.168C8.225.689 17.362 1.368 19.69 3.556c2.846 2.523 1.833 9.651 1.839 9.894-.585 4.874-4.033 5.183-4.667 5.394-.271.09-2.786.737-5.944.526z"/><path d="M12.222 4.297c-.385 0-.385.6 0 .605 2.987.023 5.447 2.105 5.474 5.924 0 .403.59.398.585-.005h-.001c-.032-4.115-2.718-6.501-6.058-6.524z"/><path d="M16.151 10.193c-.009.398.58.417.585.014.049-2.269-1.35-4.138-3.979-4.335-.385-.028-.425.577-.041.605 2.28.173 3.481 1.729 3.435 3.716zM15.521 12.774c-.494-.286-.997-.108-1.205.173l-.435.563c-.221.286-.634.248-.634.248-3.014-.797-3.82-3.951-3.82-3.951s-.037-.427.239-.656l.544-.45c.272-.216.444-.736.167-1.247-.74-1.337-1.237-1.798-1.49-2.152-.266-.333-.666-.408-1.082-.183h-.009c-.865.506-1.812 1.453-1.509 2.428.517 1.028 1.467 4.305 4.495 6.781 1.423 1.171 3.675 2.371 4.631 2.648l.009.014c.942.314 1.858-.67 2.347-1.561v-.007c.217-.431.145-.839-.172-1.106-.562-.548-1.41-1.153-2.076-1.542z"/><path d="M13.169 8.104c.961.056 1.427.558 1.477 1.589.018.403.603.375.585-.028-.064-1.346-.766-2.096-2.03-2.166-.385-.023-.421.582-.032.605z"/></svg><svg viewBox="0 0 72 70" id="vodafone" xmlns="http://www.w3.org/2000/svg"><path d="M49.3 7.3c-5.6.8-10 6.1-10.1 12.5 7.8 1.4 13.7 6.7 13.7 16.1 0 9-7.5 16.3-16.9 16.3-9.3 0-16.9-8.2-16.9-18.8 0-14.6 13-26.8 29.5-26.4-3.9-1.7-8.1-2.7-12.6-2.7C19.1 4.3 5.3 18 5.3 35S19.1 65.7 36 65.7 66.7 52 66.7 35c0-12.2-7.1-22.7-17.4-27.7z"/></svg><svg viewBox="0 0 24 24" id="youtube" xmlns="http://www.w3.org/2000/svg"><path d="M23.469 5.929l.03.196a3.043 3.043 0 00-2.068-2.112l-.021-.005c-1.871-.508-9.4-.508-9.4-.508s-7.51-.01-9.4.508A3.044 3.044 0 00.527 6.104l-.005.021c-.699 3.651-.704 8.038.031 11.947l-.031-.198a3.043 3.043 0 002.068 2.112l.021.005c1.869.509 9.4.509 9.4.509s7.509 0 9.4-.509a3.043 3.043 0 002.084-2.096l.005-.021c.318-1.698.5-3.652.5-5.648l-.001-.221.001-.23c0-1.997-.182-3.951-.531-5.846zM9.608 15.651V8.358l6.266 3.652z"/></svg></svg>